<?xml version="1.0" encoding="UTF-8" standalone="no"?>
<!DOCTYPE svg PUBLIC "-//W3C//DTD SVG 1.1//EN" "http://www.w3.org/Graphics/SVG/1.1/DTD/svg11.dtd">
<svg version="1.1" xmlns="http://www.w3.org/2000/svg" xmlns:xlink="http://www.w3.org/1999/xlink" preserveAspectRatio="xMidYMid meet" viewBox="0 0 700 700" width="700" height="700"><defs><path d="M525.68 46.94C472.05 15.64 413.5 0 350 0C286.5 0 227.93 15.65 174.32 46.94C120.69 78.23 78.24 120.69 46.94 174.32C15.65 227.94 0 286.5 0 349.99C0 426.25 22.25 494.84 66.76 555.75C111.27 616.66 168.77 658.82 239.25 682.21C247.46 683.73 253.53 682.66 257.48 679.02C261.43 675.38 263.4 670.82 263.4 665.36C263.4 664.44 263.32 656.25 263.17 640.75C263.02 625.25 262.94 611.73 262.94 600.19C261.89 600.38 253.51 601.83 252.46 602.01C245.78 603.23 237.35 603.75 227.17 603.6C216.99 603.46 206.43 602.4 195.5 600.41C184.56 598.45 174.38 593.89 164.96 586.75C155.55 579.61 148.86 570.27 144.91 558.73C144.46 557.68 140.81 549.29 140.36 548.24C137.32 541.26 132.54 533.5 126 525C119.47 516.49 112.86 510.73 106.18 507.69C105.86 507.46 103.31 505.63 102.99 505.4C100.86 503.89 98.89 502.05 97.07 499.93C95.24 497.81 93.88 495.68 92.97 493.55C92.05 491.42 92.81 489.67 95.24 488.3C97.68 486.93 102.08 486.26 108.46 486.26C109.37 486.4 116.66 487.49 117.57 487.63C123.65 488.84 131.16 492.48 140.13 498.56C149.09 504.64 156.46 512.53 162.23 522.25C169.22 534.71 177.65 544.21 187.52 550.74C197.4 557.27 207.35 560.53 217.37 560.53C227.4 560.53 236.05 559.77 243.35 558.26C250.63 556.74 257.47 554.46 263.85 551.42C266.59 531.06 274.03 515.41 286.18 504.48C268.87 502.66 253.3 499.92 239.47 496.27C225.65 492.62 211.37 486.7 196.64 478.49C181.9 470.29 169.67 460.11 159.95 447.96C150.23 435.81 142.25 419.85 136.03 400.11C129.8 380.36 126.69 357.58 126.69 331.75C126.69 294.98 138.69 263.7 162.69 237.87C151.45 210.23 152.51 179.24 165.88 144.91C174.69 142.17 187.76 144.22 205.07 151.06C222.39 157.89 235.07 163.75 243.12 168.61C251.18 173.46 257.63 177.57 262.49 180.91C290.75 173.01 319.92 169.06 349.99 169.06C380.07 169.06 409.24 173.01 437.5 180.91C439.23 179.82 453.09 171.07 454.82 169.98C466.66 162.68 480.64 156 496.74 149.92C512.84 143.85 525.15 142.17 533.66 144.91C547.33 179.24 548.55 210.23 537.3 237.87C561.3 263.7 573.31 295 573.31 331.76C573.31 357.58 570.18 380.44 563.97 400.34C557.74 420.25 549.7 436.18 539.82 448.19C529.94 460.2 517.64 470.3 502.9 478.5C488.17 486.7 473.88 492.62 460.06 496.27C446.24 499.92 430.67 502.66 413.35 504.49C429.15 518.15 437.04 539.72 437.04 569.19C437.04 578.81 437.04 655.73 437.04 665.34C437.04 670.81 438.94 675.37 442.74 679.01C446.54 682.65 452.54 683.72 460.74 682.19C531.24 658.81 588.73 616.65 633.24 555.73C677.74 494.82 700 426.24 700 349.98C699.98 286.49 684.33 227.94 653.05 174.32C621.75 120.69 579.3 78.24 525.68 46.94Z" id="cx7DfCFYT"></path></defs><g><g><g><use xlink:href="#cx7DfCFYT" opacity="1" fill="#ffffff" fill-opacity="1"></use><g><use xlink:href="#cx7DfCFYT" opacity="1" fill-opacity="0" stroke="#000000" stroke-width="1" stroke-opacity="0"></use></g></g></g></g></svg>